PathFileType	4	(X/Y/Z)	s02c0001.trc
DataRate	CameraRate	NumFrames	NumMarkers	Units	OrigDataRate	OrigDataStartFrame	OrigNumFrames
200	200	4	49	mm	200	1500	2000
Frame#	Time	racr			lacr			c7			jug			rlel			rdr			llel			ldr			s2			lic			ric			lasi			rasi			rpsi			lpsi			rgt			lgt			rth1			rth2			rth3			rth4			rlfc			rmfc			rsh1			rsh2			rsh3			rsh4			rlmal			rmmal			rcal			rtoe			rmt5			rmt1			lth1			lth2			lth4			lth3			llfc			lmfc			lsh1			lsh2			lsh3			lsh4			llmal			lmmal			lcal			ltoe			lmt1			lmt5			
		X1	Y1	Z1	X2	Y2	Z2	X3	Y3	Z3	X4	Y4	Z4	X5	Y5	Z5	X6	Y6	Z6	X7	Y7	Z7	X8	Y8	Z8	X9	Y9	Z9	X10	Y10	Z10	X11	Y11	Z11	X12	Y12	Z12	X13	Y13	Z13	X14	Y14	Z14	X15	Y15	Z15	X16	Y16	Z16	X17	Y17	Z17	X18	Y18	Z18	X19	Y19	Z19	X20	Y20	Z20	X21	Y21	Z21	X22	Y22	Z22	X23	Y23	Z23	X24	Y24	Z24	X25	Y25	Z25	X26	Y26	Z26	X27	Y27	Z27	X28	Y28	Z28	X29	Y29	Z29	X30	Y30	Z30	X31	Y31	Z31	X32	Y32	Z32	X33	Y33	Z33	X34	Y34	Z34	X35	Y35	Z35	X36	Y36	Z36	X37	Y37	Z37	X38	Y38	Z38	X39	Y39	Z39	X40	Y40	Z40	X41	Y41	Z41	X42	Y42	Z42	X43	Y43	Z43	X44	Y44	Z44	X45	Y45	Z45	X46	Y46	Z46	X47	Y47	Z47	X48	Y48	Z48	X49	Y49	Z49	
1500	7.5000	558.846924	1430.069458	564.360535	586.525879	1423.503662	161.004517	538.002014	1480.116333	356.976715	642.855713	1383.395386	364.902435	529.059265	1144.192383	633.680237	622.617798	1018.870300	777.741150	561.442383	1115.041260	126.576637	735.803894	1041.647461	20.831152	472.422974	973.607483	362.999908	630.329529	1018.554871	227.764435	597.446655	1020.903503	513.347168	677.123718	969.381958	259.867584	646.679138	972.350098	493.825653	481.893829	999.925415	407.622375	493.559326	995.799133	323.108704	548.233276	886.634460	537.988281	564.339905	886.319824	204.303802	583.913635	802.492432	551.021240	602.437134	714.887817	548.304565	576.767212	633.383850	558.007629	635.670898	713.003967	530.251404	557.448669	499.309326	515.010010	561.024231	484.424713	410.842773	528.676270	397.989105	532.422119	543.100281	311.300293	517.169067	513.931152	229.965164	513.648071	563.422913	313.601929	483.470398	503.119720	101.185425	499.407013	514.858704	114.461212	421.510834	451.131714	53.599655	442.746124	726.857910	86.726730	498.847504	615.349854	48.357422	537.548096	657.175354	71.538467	436.114471	593.650513	760.075073	187.212433	604.055115	673.209412	193.761993	638.016724	670.774841	209.588058	567.813416	592.639099	202.837997	561.033081	494.958344	223.639191	557.520447	469.044891	321.644043	535.428711	399.070129	199.556152	554.078979	315.626556	215.040161	528.435242	228.692871	214.227982	573.665771	318.229584	250.193939	518.702515	114.057320	231.547165	541.486206	118.700012	309.807220	468.743256	58.244953	277.560669	751.362244	82.044601	249.385452	673.998962	70.471527	302.603058	646.715332	46.444904	196.272888	
1501	7.5050	558.804932	1430.082153	564.346375	586.516418	1423.501099	161.004623	538.022339	1480.115723	356.961670	642.827515	1383.388672	364.910828	529.027832	1144.192139	633.676575	622.636353	1018.881592	777.767944	561.415710	1115.034546	126.584724	735.792603	1041.660278	20.820740	472.409302	973.604004	362.997864	630.318970	1018.563171	227.749191	597.452271	1020.901978	513.340454	677.120850	969.386475	259.869568	646.677429	972.356506	493.826660	481.891541	999.926819	407.624451	493.551086	995.798462	323.128479	548.234497	886.611633	537.985596	564.321045	886.312317	204.308548	583.925476	802.479675	551.028015	602.440674	714.885925	548.300232	576.759888	633.394531	558.012146	635.670898	713.008057	530.250977	557.443359	499.314789	515.012268	561.018738	484.435211	410.841888	528.673828	397.976807	532.428955	543.100586	311.300385	517.169006	513.925720	229.969772	513.654785	563.410156	313.580688	483.479034	503.119110	101.199760	499.403534	516.129272	114.009819	421.338074	451.151733	53.571945	442.741272	726.869385	86.718117	498.848694	615.344543	48.360847	537.554932	657.172791	71.532280	436.106964	593.647400	760.075195	187.212738	604.064331	673.220886	193.780945	638.027771	670.755615	209.595978	567.804688	592.629578	202.858612	561.025635	494.957184	223.642212	557.538330	469.039673	321.637787	535.422974	399.079498	199.573761	554.082642	315.615265	215.047958	528.432251	228.696655	214.227570	573.650818	318.233490	250.189362	518.711304	114.062508	231.551071	541.483948	118.698677	309.822571	468.737274	58.257755	277.552429	751.355164	82.045464	249.402054	673.984253	70.482498	302.606750	646.739807	46.459530	196.273834	
1502	7.5100	558.821655	1430.064331	564.363464	586.487427	1423.513550	160.999451	537.992432	1480.106201	356.989563	642.816162	1383.391846	364.898041	529.022644	1144.183472	633.672791	622.635864	1018.883057	777.767334	561.384949	1115.034912	126.582352	735.747498	1041.666626	20.803173	472.415222	973.600708	362.999420	630.301392	1018.563354	227.755493	597.469788	1020.901978	513.338745	677.119873	969.384644	259.872711	646.663391	972.346741	493.829926	481.904175	999.914978	407.628662	493.559692	995.797852	323.140869	548.223206	886.623047	537.973633	564.319641	886.317444	204.318695	583.923706	802.483521	551.028442	602.437134	714.888306	548.308105	576.762085	633.399658	558.011414	635.682556	713.019409	530.262695	557.438171	499.307526	515.006470	561.050049	484.443787	410.851776	528.671509	397.985992	532.428406	543.093079	311.288361	517.170959	513.948120	229.973465	513.641602	563.396545	313.594727	483.466919	503.126770	101.176437	499.423279	514.840576	114.450531	421.516937	451.152924	53.562405	442.747437	726.869080	86.717407	498.851105	615.335632	48.385548	537.552002	657.182373	71.507637	436.116119	593.638245	760.079956	187.211380	604.062256	673.243225	193.778015	638.013550	670.768738	209.576065	567.817017	592.644836	202.860031	561.026428	494.962341	223.636246	557.531677	469.025940	321.646057	535.418640	399.075134	199.558212	554.089722	315.623169	215.047729	528.416016	228.706833	214.232956	573.662048	318.216431	250.197922	518.695740	114.067596	231.554596	541.475281	118.692307	309.824707	468.735260	58.269157	277.545013	751.358643	82.049591	249.407990	673.981873	70.466858	302.599915	646.751099	46.448036	196.271576	
1503	7.5150	558.802063	1430.065063	564.371948	586.456360	1423.502563	161.010284	537.990845	1480.112427	356.971527	642.784302	1383.391357	364.900757	529.054138	1144.183838	633.676514	622.656738	1018.878296	777.758118	561.340576	1115.036011	126.594414	735.724304	1041.663818	20.780687	472.409607	973.616455	363.004272	630.300720	1018.559326	227.764938	597.437195	1020.899353	513.355286	677.110962	969.377563	259.867035	646.651733	972.344604	493.819672	481.891083	999.911926	407.637512	493.552429	995.807495	323.122894	548.239807	886.639404	537.997070	564.318909	886.318665	204.308884	583.933838	802.492981	551.037415	602.447754	714.888489	548.303467	576.757385	633.404175	558.013306	635.674438	712.993530	530.256226	557.446594	499.306458	515.009583	561.080566	484.453003	410.844421	528.680786	398.003937	532.436218	543.094055	311.290253	517.172058	513.950256	229.969360	513.654602	563.408203	313.581848	483.458313	503.113983	101.207275	499.408478	514.846558	114.452324	421.511139	451.147552	53.580009	442.751068	726.881042	86.707733	498.860382	615.349854	48.357437	537.548157	657.191650	71.526787	436.101868	593.622986	760.072266	187.209915	604.037720	673.241272	193.781525	638.025940	670.768799	209.618164	567.817627	592.636841	202.852249	561.025574	494.956421	223.641449	557.529419	469.030945	321.646149	535.428284	399.057617	199.579224	554.078125	315.614471	215.038879	528.399292	228.686081	214.238312	573.666931	318.225922	250.190445	518.709717	114.064690	231.554001	541.480835	118.700989	309.821289	468.734894	58.248516	277.558441	751.362366	82.056458	249.395859	673.970032	70.478546	302.604828	646.742188	46.434204	196.283432	
